name C:\Users\Nicos\Desktop\Gil_twoSteps\Study2\ExperimentalData\IK_Splined\twoSteps_IK_BSplines_200_meshInts_study2_p02_s_01_lowIK_modROI.mot
datacolumns 38
datarows 7
range 0.54600000 0.54958599
endheader
                time	         pelvis_tilt	         pelvis_list	     pelvis_rotation	           pelvis_tx	           pelvis_ty	           pelvis_tz	       hip_flexion_r	     hip_adduction_r	      hip_rotation_r	        knee_angle_r	       ankle_angle_r	    subtalar_angle_r	         mtp_angle_r	       hip_flexion_l	     hip_adduction_l	      hip_rotation_l	        knee_angle_l	       ankle_angle_l	    subtalar_angle_l	         mtp_angle_l	    lumbar_extension	      lumbar_bending	     lumbar_rotation	          arm_flex_r	           arm_add_r	           arm_rot_r	        elbow_flex_r	           pro_sup_r	        wrist_flex_r	         wrist_dev_r	          arm_flex_l	           arm_add_l	           arm_rot_l	        elbow_flex_l	           pro_sup_l	        wrist_flex_l	         wrist_dev_l	
          0.54600000	        -23.03892413	         12.59784136	         -7.18952769	         -0.28945061	          0.87242664	          0.35077656	        -11.57325746	        -16.63170013	          0.60137651	        -25.39138435	        -42.88451266	        -15.80069424	         -5.89407776	         88.27248233	          0.78456434	        -11.20121276	        -86.12739143	          6.55930946	        -14.41812773	          7.20016062	        -14.97246393	        -23.77747861	         -7.01881990	         55.90554920	        -12.95007739	         24.71360973	        141.32552880	         60.41737970	        -18.61249019	         10.24826728	        -76.18043287	          4.63342944	        -44.94015539	         52.74783546	         63.39772283	          1.35649221	         25.46758186	
          0.54633801	        -23.03060725	         12.53726892	         -7.12076570	         -0.28756476	          0.87265772	          0.35081793	        -11.54371646	        -16.52412614	          0.51576611	        -25.60354692	        -42.87056089	        -15.85777704	         -5.94222821	         88.17122049	          0.79949277	        -11.17182106	        -85.97931220	          6.56241520	        -14.40549644	          7.19680420	        -15.02631859	        -23.74500185	         -7.06583016	         55.62018491	        -13.04778684	         24.67970089	        141.41640615	         60.39230052	        -18.62945692	         10.25460891	        -76.05278663	          4.62634599	        -44.95002368	         52.77754281	         63.39256128	          1.36277120	         25.46277244	
          0.54740599	        -23.00051364	         12.34519615	         -6.90400410	         -0.28160561	          0.87339033	          0.35095132	        -11.44716825	        -16.18366099	          0.24727793	        -26.28437483	        -42.81302781	        -16.02693517	         -6.07352573	         87.84334738	          0.84720919	        -11.07883992	        -85.51363129	          6.57049644	        -14.36331840	          7.18777966	        -15.20331184	        -23.64156537	         -7.21026305	         54.70700048	        -13.35735883	         24.55979204	        141.69636694	         60.31343830	        -18.68340112	         10.27547096	        -75.64432462	          4.59570866	        -44.97665807	         52.87701878	         63.38077444	          1.38202227	         25.44706631	
          0.54818000	        -22.97041708	         12.20449702	         -6.74798913	         -0.27728541	          0.87392672	          0.35105375	        -11.37022292	        -15.93566134	          0.05704823	        -26.80056195	        -42.74211973	        -16.12520866	         -6.12342952	         87.58850829	          0.88298298	        -11.01120177	        -85.18088522	          6.57259284	        -14.32782404	          7.18467120	        -15.34642895	        -23.56481266	         -7.30603558	         54.02009272	        -13.58356547	         24.44515506	        141.88368650	         60.25710365	        -18.72322707	         10.29238244	        -75.33710556	          4.55557415	        -44.98609028	         52.96130274	         63.38205122	          1.39469750	         25.43457518	
          0.54818000	        -22.97041708	         12.20449702	         -6.74798913	         -0.27728541	          0.87392672	          0.35105375	        -11.37022292	        -15.93566134	          0.05704823	        -26.80056195	        -42.74211973	        -16.12520866	         -6.12342952	         87.58850829	          0.88298298	        -11.01120177	        -85.18088522	          6.57259284	        -14.32782404	          7.18467120	        -15.34642895	        -23.56481266	         -7.30603558	         54.02009272	        -13.58356547	         24.44515506	        141.88368650	         60.25710365	        -18.72322707	         10.29238244	        -75.33710556	          4.55557415	        -44.98609028	         52.96130274	         63.38205122	          1.39469750	         25.43457518	
          0.54851801	        -22.95727389	         12.14305362	         -6.67985729	         -0.27539877	          0.87416096	          0.35109848	        -11.33662084	        -15.82735973	         -0.02602520	        -27.02598122	        -42.71115412	        -16.16812477	         -6.14522254	         87.47721988	          0.89860542	        -10.98166415	        -85.03557478	          6.57350834	        -14.31232363	          7.18331373	        -15.40892829	        -23.53129470	         -7.34785950	         53.72011964	        -13.68235006	         24.39509301	        141.96548908	         60.23250227	        -18.74061908	         10.29976769	        -75.20294279	          4.53804738	        -44.99020933	         52.99810961	         63.38260879	          1.40023278	         25.42912030	
          0.54958599	        -22.91343568	         11.94886668	         -6.46505818	         -0.26943707	          0.87490278	          0.35124127	        -11.22858325	        -15.48547558	         -0.28727524	        -27.74384064	        -42.60741488	        -16.29690016	         -6.20405859	         87.12078296	          0.94820665	        -10.88846155	        -84.57788234	          6.57532479	        -14.26236322	          7.17991420	        -15.61052214	        -23.42509231	         -7.47692443	         52.76484651	        -13.99441466	         24.22767938	        142.21934253	         60.15478768	        -18.79625738	         10.32384681	        -74.77573919	          4.47709705	        -44.99996435	         53.11796589	         63.38705081	          1.41754034	         25.41156355	
